<?xml version="1.0" encoding="UTF-8"?>
<svg width="347" height="500" version="1.1" viewBox="0 0 347 500" xml:space="preserve" xmlns="http://www.w3.org/2000/svg"><g stroke-width=".2824">
	<path d="m104.4 47.63c-3.061 5.817-4.936 12.98-5.71 21.8-0.0584 0.6468-0.3215 0.1116-1.119-2.259-2.586-7.689-3.036-10.75-3.281-22.31l-0.1847-8.754-2.352 2.824c-7.675 9.217-12.94 20.03-16.27 33.46-0.56 2.252-1.086 4.286-1.168 4.518-0.0834 0.2329-1.263-2.309-2.623-5.648-2.471-6.062-7.746-17.37-8.107-17.37-0.7268 0-4.721 20.25-5.766 29.23-0.1897 1.631-0.4266 3.6-0.5265 4.374l-0.1815 1.409-1.63-2.539c-3.753-5.845-7.006-13.7-9.036-21.82-0.8168-3.267-1.223-4.47-1.402-4.151-0.6763 1.209-2.537 6.997-3.566 11.1-1.319 5.252-2.036 9.185-2.741 15.02-0.623 5.153-0.709 17.68-0.1505 21.88 0.6388 4.812 1.635 9.092 3.024 12.99 0.7555 2.12-10.37-10.63-16.97-19.44-1.392-1.86-1.69-2.128-1.859-1.672-0.295 0.7978-0.8194 8.968-0.8194 12.75 2.7e-4 1.801 0.1318 5.371 0.2923 7.932 1.183 18.89 5.611 31.6 15.27 43.82 1.072 1.359 1.91 2.471 1.861 2.471-0.4452 0-4.286-1.733-7.127-3.216-2.387-1.246-3.516-1.705-3.516-1.43 0 0.2226 0.4373 2.498 0.9722 5.054 5.207 24.89 15.72 39.96 35.18 50.35 5.266 2.818 13.47 5.983 20.9 8.059l2.4 0.6705 1.453 2.235c1.599 2.459 4.493 6.54 5.608 7.912l0.7135 0.8774-3.465 0.6423c-9.38 1.739-15.49 3.888-20.59 7.249-11.26 7.415-38.15 38.83-44.47 51.98-1.451 3.013-2.364 6.28-2.364 8.46 0 4.099 1.865 8.89 5.23 13.43 2.187 2.954 7.325 8.31 11.43 11.92 3.086 2.71 10.32 8.492 12.55 10.02 0.7065 0.4858 1.284 1.006 1.284 1.156 0 0.1515-0.7047 0.6077-1.566 1.015-2.069 0.9794-4.049 2.797-5.077 4.658-1.595 2.887-0.9764 6.558 1.549 9.196 1.893 1.977 4.727 3.429 8.765 4.493 2.903 0.7636 9.107 0.703 11.95-0.1137 2.534-0.7302 3.973-1.41 5.249-2.483 0.4934-0.4152 0.9423-0.7084 0.9981-0.6497 0.2321 0.24-2.374 20.21-3.809 29.2-1.307 8.177-3.631 21.33-3.826 21.65-0.0714 0.1207 0.2212 0.3958 0.6533 0.6175 1.417 0.7295 8.61 2.922 12.72 3.88l4.024 0.9374-3e-3 1.284c-3e-3 1.463-0.7274 19.92-1.012 25.8l-0.1887 3.9-3.14 2.092c-4.315 2.875-7.48 5.425-10.48 8.445-6.091 6.122-6.102 10.71-0.0255 12.18 3.278 0.7982 10.4 0.3465 16.27-1.028 4.408-1.031 9.782-3.085 11.23-4.285 0.2927-0.2426 0.5995-0.1881 1.284 0.2247 2.002 1.206 7.833 0.1631 9.739-1.742l0.9689-0.9705-0.1104-7.478c-0.0878-5.932-0.0379-7.475 0.2491-7.475 0.1982 0 0.3622-0.025 0.3649-0.055 2e-3 -0.032 0.3786-2.995 0.835-6.566 0.4569-3.571 1.154-9.038 1.55-12.14 0.7897-6.199 1.799-13.47 2.008-14.48l0.1334-0.6374 17.05 0.1484 0.3553 2.257c0.5378 3.423 1.423 11.16 2.054 17.93 0.3102 3.338 0.7172 7.709 0.9045 9.713 0.2758 2.949 0.428 3.662 0.8034 3.759 0.414 0.092 0.3496 0.6803-0.6069 5.398-0.5888 2.9-1.155 6.312-1.259 7.583l-0.1884 2.31 1.349 0.8574c2.548 1.617 9.042 2.425 11.88 1.484 1.07-0.3565 1.339-0.3237 3.812 0.4649 6.418 2.048 15.58 3.448 22.52 3.442 6.085-0.01 8.059-0.5906 9.612-2.849 0.5602-0.813 0.641-1.207 0.5241-2.55-0.181-2.076-0.8155-3.354-2.644-5.33-2.852-3.081-5.56-4.841-17.11-11.11-0.7545-0.4079-1.059-0.7629-1.059-1.23 0-0.3598-0.2507-3.863-0.5571-7.783-0.8293-10.61-1.711-23.17-1.631-23.22 0.0397-0.022 0.8965-0.3331 1.906-0.6844 1.009-0.3546 3.202-1.216 4.871-1.914 3.465-1.446 3.256-1.03 2.619-5.167-0.227-1.474-0.6724-4.586-0.9895-6.918-0.3171-2.33-0.8279-6.077-1.135-8.33-4.501-33.01-5.732-48.23-5.769-71.3-0.0208-13.41 0.1314-25.07 0.3242-24.88 0.0616 0.0611 1.066 2.061 2.234 4.447 4.8 9.802 8.096 12.89 15.35 14.37 2.587 0.5298 3.614 0.5894 8.048 0.4719 9.352-0.2445 17.44-2.338 26.4-6.832 8.847-4.437 13.27-9.001 15.25-15.75 0.3541-1.204 0.7842-2.3 0.9559-2.437 0.1759-0.1403 1.42-0.1491 2.855-0.0207 4.176 0.3748 12.46 0.2975 17.25-0.1614 12.29-1.176 25.34-5.331 33.55-10.67 3.948-2.573 5.748-4.543 6.235-6.825 0.0983-0.4658 0.8122-1.61 1.587-2.541 1.96-2.36 2.653-3.885 2.63-5.789-0.0242-1.847-0.5986-3.081-1.946-4.154-0.653-0.521-0.9854-1.026-0.9854-1.493-2e-3 -1.417-0.9776-2.481-2.743-2.996-2.081-0.6063-8.224-0.4328-20.84 0.5874-9.544 0.7723-22.32 1.251-22.13 0.8304 0.0624-0.1419 0.6582-1.319 1.326-2.615 0.6681-1.297 1.678-3.71 2.245-5.365 0.9233-2.695 1.032-3.315 1.042-5.972 8e-3 -2.369-0.093-3.162-0.5156-3.953-1.338-2.509-3.072-3.496-5.859-3.338-3.295 0.186-3.857 0.746-10.8 10.74-7.974 11.47-12.74 17.16-16.49 19.68l-1.77 1.19-1.194-0.9653c-3.151-2.547-2.889-2.618-13.76 3.719-10.22 5.955-14.21 8.231-14.45 8.231-0.1249 0-1.214-1.531-2.42-3.402-12.49-19.39-14.76-22.6-16.98-24.02-1.683-1.077-6.548-3.459-8.771-4.295l-1.72-0.6469 1.025-0.9739c0.5636-0.5354 1.985-2.117 3.157-3.516 6.492-7.734 10.49-16.85 12.51-28.52 0.8392-4.848 0.9132-14.1 0.1522-19.06-0.7672-5.001-3.086-13.32-4.391-15.76-0.2694-0.5034-0.1008-0.735 1.457-1.974 2.35-1.871 6.427-6.127 8.706-9.09 9.482-12.33 13.32-27.24 12.15-47.27-0.325-5.58-1.077-12.31-1.416-12.67-0.2892-0.3075-2.397 4.532-5.845 9.671-3.77 5.616-3.38 5.808-3.264-1.609 0.2145-13.94-1.516-27.52-5.15-40.44-0.5404-1.919-1.029-3.535-1.097-3.55-0.0673-0.0158-0.3332 1.016-0.6023 2.317-2.227 10.77-7.367 19.18-7.796 18.38-0.4366-0.819-1.85-13.12-6.102-23.91-1.853-4.705-6.071-12.78-8.118-15.54l-0.7003-0.9442-0.1434 1.226c-0.0806 0.6746-0.2848 2.624-0.4583 4.332-0.1732 1.708-0.6345 4.569-1.025 6.353-0.7522 3.442-2.694 10.16-2.937 10.16-0.0814 1e-3 -0.4347-1.428-0.7886-3.174-1.683-8.305-5.337-16.43-10.28-22.86-2.103-2.734-8.641-9.544-9.163-9.544-0.1978 0-0.3501 2.092-0.4468 6.142-0.1474 6.15-0.779 11.11-2.043 16.02-0.5208 2.027-2.183 6.636-2.394 6.636-5.116-9.739-6.427-21.21-6.794-32.05-8.02 7.723-8.694 8.61-11.86 14.62zm-30.92 243.1 0.102 7.885c0.0569 4.334 0.0569 7.879 0 7.869-0.1755-0.0267-8.689-5.923-9.358-6.484-0.2032-0.1699 1.502-1.902 7.139-7.256z"/>
	<path d="m137.2 333.8c-2.173-21.71-3.462-43.51-5.825-65.23-1.742-0.1924-3.53-0.1211-5.286-0.1211-2.852 21.64-5.464 43.32-7.76 65.03 3.414 3.147 6.39 6.805 9.943 9.806 4e-3 0 9.216-8.579 8.931-9.494zm-2.556-74.86-2.791-5.134-6.399-0.0836-2.576 5.422 3.267 5.311 5.749 0.0656z" fill="#1a79d4"/>
	<path d="m69.71 357.5c2.841-0.7248 4.789-1.749 6.613-3.474 1.766-1.672 1.895-2.049 2.477-7.272 1.025-9.206 1.162-15.6 0.4012-18.78-0.5453-2.274-1.728-5.787-1.948-5.787-0.1248 0-0.3111 0.3834-0.4142 0.8543-0.271 1.233-2.208 6.121-3.256 8.22-1.772 3.543-3.877 6.342-7.04 9.349l-3.097 2.945 1.234 1.324c1.532 1.646 2.136 2.887 2.136 4.392 0 1.287 5e-3 1.282-2.832 2.1-1.106 0.3207-2.038 0.8754-3.194 1.905l-1.631 1.453-1.043-0.8411c-1.511-1.22-1.487-1.837 0.1349-3.435 0.7496-0.7383 1.681-1.56 2.069-1.827l0.7058-0.4848-0.7058-0.5458c-2.336-1.813-7.345 1.204-7.342 4.425 3e-3 1.813 2.013 3.672 5.306 4.905 3.247 1.215 7.988 1.453 11.42 0.5745zm151.4-65.42c1.066-0.7167 3.408-2.41 5.207-3.765 1.797-1.355 3.818-2.827 4.487-3.27l1.22-0.8045 10.36-0.0366c11.09-0.0384 13.52-0.243 20.16-1.712 6.017-1.331 13.9-3.982 18.08-6.082 2.098-1.053 5.682-3.558 6.85-4.789l1.129-1.188-2.109 0.1849c-1.16 0.103-5.161 0.9414-8.894 1.866-10.62 2.631-17.85 3.951-21.65 3.951-1.397 0-1.418-0.0147-1.271-0.7766 0.0828-0.427 0.23-1.317 0.3295-1.977l0.1811-1.2 1.317-4e-3c3.823-0.0158 14.02-1.977 24.89-4.789 3.15-0.8145 4.954-1.133 6.437-1.134 1.286-1e-3 2.375-0.1634 2.89-0.4305 1.601-0.8285 2.279-3.561 0.9306-3.753-0.3356-0.0471-3.578 0.6762-7.201 1.609-8.583 2.211-12.22 3.038-17.03 3.874-4.329 0.7526-10.78 1.427-11.05 1.155-0.0928-0.0927 0.0436-1.049 0.3063-2.121l0.4778-1.95 3.722-0.3394c4.521-0.412 10.34-1.379 16.25-2.699 5.627-1.257 11.33-2.849 11.73-3.276 0.4564-0.4869-8.09-0.1559-15.93 0.6167-8.547 0.8427-21.98 0.9397-24.94 0.1803-1.813-0.4658-4.71-1.57-4.71-1.795 0-0.0581 0.7473-1.852 1.66-3.99 2.204-5.159 3.436-9.087 3.626-11.55 0.1462-1.9 0.1114-2.065-0.5763-2.753-0.4027-0.4027-0.951-0.7319-1.219-0.7319-0.7435 0-2.524 2.086-5.328 6.243-9.827 14.57-14.6 19.85-23.08 25.48-2.715 1.805-5.086 3.459-5.266 3.677-0.493 0.5941-1.15 4.032-1.155 6.048-0.0155 5.337 2.723 11.41 5.763 12.8 0.6323 0.286 1.221 0.5235 1.309 0.5273 0.0875 3e-3 1.031-0.5775 2.097-1.292zm-105.5-189.4c-0.1685 5.743 0.2603 11.62 0.25 17.3 0 0.4106-11.75-6.074-22-10.26-4.001 3.657-7.099 8.13-9.558 12.94-3.072 6.28-4.329 10.61-5.433 18.74-0.5725 4.213-0.637 5.82-0.6283 15.57 8e-3 9.575 0.1032 11.87 0.7821 19.2 0.4247 4.58 0.6972 8.629 0.6055 8.996-0.0908 0.3671-0.3716 0.9772-0.622 1.359l-0.4555 0.6949-1.72-1.697c-3.126-3.084-6.935-4.834-10.51-4.834-2.244 0-3.422 0.4732-4.529 1.817-1.178 1.428-1.501 2.721-1.501 5.992 0 8.683 4.724 14.36 15.33 18.44 5.673 2.178 7.045 2.945 8.886 4.953 0.9048 0.9876 2.448 3.245 3.501 5.119 9.756 17.36 18.32 26.11 29.48 30.13 1.89 0.6789 6.424 1.737 8.59 2.004 2.01 0.2482 9.533-0.0896 11.81-0.531 3.115-0.604 7.051-1.909 9.499-3.151 6.424-3.256 12.76-9.609 16.73-16.77 4.899-8.841 7.471-22.3 6.288-32.9-0.5656-5.057-2.22-11.88-3.792-15.65-0.5965-1.428-0.6355-1.795-0.4238-3.973 0.2828-2.908 0.3337-11.14 0.0832-13.23-0.1748-1.456-0.2492-1.565-1.904-2.794-4.956-3.682-13.78-6.562-20.11-6.562h-2.363v1.212c0 1.291 0.9537 6.54 1.977 10.88 0.5227 2.215 0.6944 2.6 1.087 2.434 2.107-0.8894 3.453-1.306 5.557-1.719 4.448-0.8737 8.417 0.0832 11.78 2.838 0.8929 0.7311 1.624 1.418 1.624 1.526 6e-5 0.1082-4.193 0.1682-9.318 0.1341-5.125-0.0357-9.318 0.0212-9.318 0.1232 0 0.1032 0.2466 1.083 0.5475 2.18 0.301 1.097 0.6785 2.502 0.8395 3.123 0.2223 0.8586 0.5046 1.223 1.178 1.52 1.505 0.6633 3.801 3.222 4.916 5.484 0.8469 1.714 1.063 2.505 1.18 4.323 0.0806 1.225 0.0237 2.741-0.1226 3.369l-0.2658 1.143 2.092 0.3331c5.379 0.8563 9.479 4.905 10.69 10.57 0.6392 2.982 0.5122 7.621-0.2956 10.81-0.6481 2.555-3.651 9.468-4.111 9.468-0.1095 0-0.555-0.5398-0.99-1.2-0.9665-1.467-5.097-6.602-5.523-6.864-0.169-0.1053-0.7087 0.2991-1.199 0.8969-0.4905 0.5975-2.059 2.383-3.487 3.967l-2.595 2.883-0.8918-2.877c-0.4905-1.582-0.934-2.923-0.986-2.976-0.0502-0.0522-2.143 1.581-4.645 3.634-2.503 2.053-4.589 3.685-4.637 3.629-0.0465-0.0586-0.2452-1.311-0.4398-2.786-0.1949-1.475-0.44-2.841-0.546-3.036-0.1321-0.2428-1.863 0.7788-5.582 3.295l-5.39 3.648-0.1765-1.288c-0.0952-0.7088-0.177-2.351-0.177-3.648 0-1.278-0.0654-2.328-0.1456-2.36 0-3.1e-4 -2e-3 -6.3e-4 -3e-3 -6.3e-4 -0.0831 0-1.575 0.6529-3.318 1.451-3.49 1.597-9.499 4.196-9.7 4.196-0.0693 0-0.0903-2.414-0.0453-5.365 0.0711-4.718 0.0282-5.365-0.36-5.365-0.4806 1.2e-4 -10.99 2.906-12.27 3.388-0.4299 0.1635-0.8458 0.2337-0.9236 0.1554-0.0799-0.0798 0.2715-1.448 0.7774-3.044 3.002-9.465 9.16-16.35 17.8-19.9 6.153-2.528 11.83-2.43 20.77 0.3546 3.436 1.07 4.292 1.146 6.658 0.5897 2.16-0.5083 3.925-1.597 4.919-3.033 1.371-1.98 1.008-5.17 0.056-6.791-1.045-1.778-3.129-3.555-4.71-4.015l-1.297-0.3779-1.476-5.901c-1.848-7.387-3.634-16.06-4.058-19.69-0.8218-7.065 2.205-14.68 6.585-16.56 5.947-2.559 14.42 1.617 20.46 10.08 0.7184 1.007 1.54 2.289 1.826 2.852l0.5201 1.02v-1.542c-3e-3 -3.484-0.6291-9.414-1.404-13.26-2.57-12.76-8.048-21.44-17.52-27.74-3.095-2.06-7.808-4.512-9.318-4.851-1.339-0.3006-2.444 3.581-8.793 12.31-1.226-1.166-7.291-6.949-14.1-14.52zm9.536 35.35c2.352 0 2.419 0.2424 2.775 10.02 0.0929 2.594 0.0523 4.682-0.0941 4.899-0.1844 0.2694-1.472 0.4515-4.411 0.6248-6.785 0.4002-12.9 1.732-18.94 4.126-5.159 2.043-11.22 5.707-16.19 9.793l-2.351 1.931 0.199-1.368c1.06-7.299 4.758-14.42 10.15-19.54 4.865-4.62 11.12-7.799 18.07-9.183 2.937-0.5839 8.895-1.305 10.79-1.305z" fill="#feb493"/>
	<path d="m102.2 407.5c0.1085-2.136 0.445-7.506 0.748-11.93 0.303-4.426 0.6766-10.14 0.8304-12.71 0.1539-2.561 0.3409-5.294 0.4155-6.07 0.0727-0.7781 0.2667-3.762 0.4269-6.637 0.1602-2.874 0.3538-5.794 0.4304-6.494 0.656-6.004 2.081-40.01 2.139-51.05l0.0352-6.292-5.498-9.945c-6.215-11.24-10.3-18.72-11.16-20.41l-0.578-1.143 4.123-10.31-1.28-1.045c-0.704-0.5751-2.341-1.981-3.637-3.126l-2.358-2.079v-6.605c0-3.66-0.1118-6.605-0.2508-6.605-0.61 0-5.416 1.521-7.35 2.327-2.826 1.177-7.141 4.106-10.61 7.203-9.245 8.251-23.8 25.33-32.67 38.35-7.316 10.72-7.658 15.84-1.625 24.39 3.753 5.317 14.25 14.65 24.5 21.77l1.773 1.234 1.05-0.9652c3.295-3.03 5.563-5.771 7.536-9.125 3.321-5.644 5.292-11.68 5.151-15.78-0.0582-1.633-0.1575-1.954-0.75-2.383-0.3769-0.2747-2.662-1.867-5.08-3.539-2.417-1.672-5.967-4.145-7.889-5.495l-3.496-2.454 20.82-20.64 0.2975 32.76 1.215 3.105c0.6681 1.709 1.967 5.264 2.886 7.902 1.65 4.733 1.672 4.837 1.672 7.912 0 6.098-1.014 18.71-2.849 35.44-0.8814 8.031-4.074 29.03-5.509 36.23-0.397 1.994-0.6578 3.688-0.5793 3.767 0.0802 0.065 1.961 0.6405 4.185 1.251 6.506 1.785 14.22 2.949 20.17 3.037l2.571 0.033zm54.95 3.026c3.425-0.8287 10.39-2.988 10.78-3.343 0.1075-0.082-0.0504-1.765-0.3549-3.707-0.554-3.558-2.574-18.76-3.64-27.39-2.817-22.83-3.62-33.12-3.874-49.81-0.1846-12.01 0.366-42.5 0.7872-43.6 0.2245-0.5906 0.3977-0.6432 1.858-0.5666l1.61 0.0853 2.289 5.224c4.275 9.757 6.822 14.59 9.036 17.16 2.798 3.243 6.864 4.619 13.62 4.617 9.025-2e-3 19.79-3.103 28.2-8.121l2.712-1.619-2.501-1.253c-1.904-0.9565-2.973-1.735-4.478-3.266-3.535-3.594-5.131-7.68-5.422-13.89-0.1779-3.795 0.2555-6.517 1.518-9.539 0.3804-0.9099 0.6381-1.708 0.5726-1.773-0.3592-0.3591-21.99 12.89-23.19 12.89-0.6262 0-5.348-7.034-15.4-22.95-1.448-2.292-3.177-4.668-3.84-5.28-0.9124-0.8405-5.3-3.4-5.834-3.4-0.0425-1.9e-4 4e-3 1.302 0.1057 2.894 0.0996 1.592 0.1952 3.871 0.2118 5.066l0.0286 2.172-1.765 1.333c-0.9708 0.7331-1.876 1.429-2.011 1.547-0.3851 0.3354 3.493 6.354 3.493 7.294 0 0.2506-7.082 17.27-11.94 28.69l-2.041 4.8 0.0399 10.59c0.0498 13.96 0.95 34.99 2.649 61.98 0.4595 7.299 0.9615 15.37 1.116 17.93 0.1544 2.566 0.4139 6.536 0.5767 8.829 0.163 2.291 0.3146 4.864 0.3373 5.719 0.0485 1.89-0.0916 1.869 4.75 0.6959zm-37.02-65.4 4.06-0.1845-2.79-2.726c-1.535-1.499-3.784-3.747-5.001-4.995l-2.211-2.269 0.4543-4.349c0.2498-2.392 0.5735-5.493 0.7195-6.892 0.1459-1.4 0.6537-5.91 1.128-10.03 0.4747-4.113 1.113-9.829 1.418-12.7 0.3047-2.874 0.7383-6.622 0.963-8.33 0.2247-1.709 0.62-4.948 0.8782-7.201 0.258-2.253 0.9092-7.398 1.446-11.44l0.977-7.342-1.499-2.892c-0.8246-1.59-1.582-2.891-1.684-2.894-0.103-2e-3 -1.486 1.425-3.078 3.174-1.59 1.747-3.027 3.177-3.191 3.177-0.1637 0-1.131-0.9699-2.147-2.156-1.017-1.186-1.884-2.124-1.927-2.086-0.0434 0.0393 0.3017 2.152 0.7671 4.696 1.742 9.527 2.305 17.3 2.311 31.88 5e-3 12.35-0.736 37.53-1.299 44.11l-0.1384 1.622h2.889c1.589 0 4.718-0.085 6.952-0.1857zm24.21-3.844c-0.7512-15.24-1.082-36.62-0.729-47.21 0.4026-12.1 1.198-19.44 2.965-27.39 1.12-5.038 1.051-4.597 0.6319-3.984-1.164 1.707-3.818 4.679-4.176 4.682-0.0797 3.1e-4 -1.2-1.205-2.494-2.678-1.293-1.473-2.443-2.678-2.554-2.678-0.1105 0-0.7573 1.134-1.437 2.521l-1.236 2.521 0.3365 2.773c0.3385 2.792 0.8212 7.774 1.607 16.58 0.463 5.19 3.741 44.25 3.984 47.47l0.1489 1.978-4.544 4.514c-2.498 2.484-4.543 4.579-4.543 4.66-9e-5 0.0804 2.75 0.1079 6.11 0.0635l6.11-0.0821zm-37.16-53.28c-0.6837-12.65-2.083-21.81-5.094-33.35-3.106-11.9-3.247-12.39-3.623-12.39-0.205 0-1.762 0.3367-3.459 0.7483l-3.086 0.7483v12.31l2.612 2.085c1.437 1.147 3.242 2.658 4.013 3.357l1.399 1.273-4.699 11.65 3.194 6.006c1.756 3.304 4.309 8.101 5.676 10.67 1.367 2.563 2.644 5.105 2.841 5.648 0.354 0.9822 0.3568 0.975 0.4503-0.9891 0.0501-1.087-0.0461-4.58-0.2188-7.765zm45.15-5.023c2.333-5.947 4.241-10.98 4.241-11.19 0-0.206-0.8915-2.093-1.981-4.19-1.089-2.098-1.906-3.99-1.814-4.202 0.0906-0.2118 1.17-1.213 2.397-2.223 1.227-1.009 2.281-1.962 2.341-2.118 0.0613-0.1554-6e-3 -2.443-0.1484-5.083-0.2326-4.32-0.3162-4.848-0.84-5.294-0.521-0.4425-1.366-0.6772-1.366-0.3792 0 0.0637-0.509 1.999-1.131 4.303-1.868 6.915-4.667 21.32-5.492 28.24-0.3858 3.245-1.026 12.06-0.9802 13.5l0.0182 0.5667 0.257-0.5667c0.1414-0.309 2.166-5.429 4.498-11.38zm-2.841-30.89c0.3429-1.252 0.5818-2.318 0.53-2.37-0.05-0.0501-0.8878 0.2874-1.858 0.7533-2.784 1.336-9.516 3.07-11.92 3.07-0.7084 0-0.399 0.3908 3.196 4.041l3.982 4.041 2.723-3.628c2.426-3.233 2.792-3.877 3.346-5.905zm-34.99 7.201c1.01-1.166 2.82-3.019 4.024-4.12 1.204-1.101 2.189-2.106 2.189-2.237 0-0.1314-0.2916-0.2387-0.6475-0.2387-1.07 0-5.402-1.354-8.158-2.549-1.421-0.6162-3.705-1.884-5.077-2.817-1.372-0.9335-2.495-1.615-2.495-1.515 0 0.2805 1.649 5.921 2.207 7.551 0.5022 1.466 5.286 8.059 5.839 8.05 0.1554-3e-3 1.108-0.9589 2.118-2.125zm18.92 148.2c0-0.4359-1.672-8.372-2.422-11.5-0.9809-4.088-2.453-8.155-4.264-11.78-1.356-2.713-3.838-6.663-4.188-6.663-0.2781 0-2.026 9.256-2.799 14.82-0.6608 4.758-1.375 9.508-1.814 12.07-0.2862 1.668-0.4552 3.097-0.375 3.177 0.2757 0.2764 15.86 0.1531 15.86-0.1254z" fill="#fff"/>
	<path d="m108.1 443.6c1.3e-4 -0.4175 0.4472-4.128 0.9932-8.242 0.5463-4.115 1.315-9.962 1.708-12.99 1.223-9.425 5.052-36.06 6.608-45.97 0.471-3.003 0.8581-5.543 0.8606-5.647 2e-3 -0.1077 0.1108-0.3616 0.2415-0.5657 0.6293-0.9942 5.331 2.499 8.175 6.073 3.095 3.889 6.159 9.977 7.72 15.34 2.852 9.798 5.613 29.08 6.952 48.57l0.2033 2.965 18.78 0.1464v-0.9208c0-0.5062-0.3736-5.56-0.8282-11.23-0.455-5.67-0.9155-11.61-1.024-13.2-0.1078-1.592-0.2118-2.895-0.2304-2.895-0.0193 0-2.052 0.3829-4.518 0.8474s-4.642 0.8465-4.837 0.8465c-0.249 0-0.4087-0.8612-0.5374-2.895-0.1022-1.592-0.6212-9.631-1.157-17.86-0.5358-8.233-1.356-21.07-1.823-28.52-0.4672-7.454-0.9279-14.54-1.024-15.74l-0.1748-2.189h-12.75c-7.011 0-14.72 0.0834-17.14 0.1841l-4.391 0.1806-0.495 7.934c-0.2722 4.366-0.6157 9.715-0.763 11.89-0.7846 11.58-2.805 44.76-2.806 46.08-1.9e-4 0.218-0.4913 0.2905-1.483 0.2217-0.8155-0.047-3.973-0.1709-7.017-0.2509l-5.535-0.1491-0.1873 5.15c-0.4176 11.48-0.7444 19.38-0.8866 21.46l-0.1504 2.184 8.547 0.06c4.702 0.033 8.643 0.028 8.759-0.011 0.1159-0.038 0.2119-0.4275 0.212-0.846z" fill="#9ba0a6"/>
	<path d="m99.36 171.4c5.777-6.594 13.58-7.988 19.92-3.566 1.811 1.261 2.948 2.185 2.948 2.395 0 0.071-3.462 0.1957-7.694 0.274-7.336 0.1357-10.81 0.4846-15.12 1.517l-0.7692 0.1845z"/>
	<path d="m97.38 156c7.534-4.145 13.83-5.921 23.47-6.61l2.753-0.1972-4e-3 -2.432c-5e-3 -3.744 0.0195-3.702-2.214-3.532-3.612 0.2756-6.695 0.7139-8.839 1.257-6.864 1.74-14.04 6.602-17.79 12.05-0.456 0.6627-0.7633 1.205-0.6828 1.205 0.0819 0 1.568-0.7827 3.307-1.739zm-13.49 63.36c-1.559-3.73-4.326-5.882-10.78-8.372-9.011-3.482-14.21-7.98-16.92-14.64-1.04-2.557-1.458-4.792-1.465-7.844-0.019-7.568 3.843-12.3 10.32-12.65 1.834-0.099 2.886 0.0271 5.34 0.6423 1.681 0.421 3.199 0.8197 3.372 0.8865 0.2295 0.0879 0.2193-0.824-0.0387-3.343-0.9733-9.561-0.9586-24.74 0.0304-32.73 1.428-11.5 4.857-20.72 10.48-28.19 2.758-3.659 7.542-8.265 8.398-8.082 5.167 1.116 9.948 2.763 14.85 5.117 2.079 0.9977 3.809 1.814 3.843 1.814 0.1968-4.634 0.3589-9.273 0.5973-13.91 0.2819-7.074 4.54-0.7765 4.54-0.7765 1.248 1.445 10.78 12.42 12.23 12.42 1.097 0 6.207-10.08 8.186-9.731 4.45 0.784 11.6 4.487 16.43 8.502 9.2 7.661 14.78 18.17 16.69 31.43 0.5823 4.047 0.6286 5.354 0.6037 17.04l-0.0262 12.66c15.97-15.7 17.98-31.2 17.98-50.57l-3.036 3.075c-2.042 2.068-3.908 3.637-5.701 4.789-1.466 0.943-2.684 1.685-2.707 1.65-0.023-0.0372 0.0573-1.081 0.1743-2.324 0.1193-1.243 0.225-6.452 0.2359-11.58 0.0233-11.01-0.5508-19.99-1.723-26.93l-0.3036-1.801-1.039 1.975c-2.117 4.021-6.116 8.796-9.225 11l-0.8743 0.6218-0.4795-3.448c-1.367-9.832-3.639-19.84-6.449-28.41l-1.703-5.193-0.964 3.358c-1.379 4.8-3.634 10.26-5.393 13.07-1.798 2.869-3.73 5.487-3.917 5.3-0.071-0.071-0.315-1.448-0.5393-3.058-0.9801-7.034-2.678-13.94-4.654-18.92-1.857-4.684-5.244-10.8-7.136-12.88l-0.5803-0.6374-0.6163 3.055c-0.783 3.883-2.102 8.132-3.552 11.44-1.105 2.522-4.713 8.652-5.099 8.657-0.368 6e-3 -3.772-4.475-5.12-6.74-3.51-5.995-4.665-13.93-5.752-20.72-11.15 13.82-9.756 32.9-9.42 35.52 0.1397 1.084 0.2105 2.016 0.1576 2.069-0.1819 0.1819-2.548-2.548-4.202-4.848-5.583-7.765-9.033-16.24-10.16-24.95-0.0874-0.678-0.1348-1.263-0.472-0.6842-0.0917 0.1592-0.3344 0.8647-0.743 1.512-1.367 2.166-3.979 7.672-5.311 11.2-1.488 3.936-4.428 14.03-5.8 19.9-0.5021 2.15-1.015 3.801-1.14 3.671-1.213-1.273-6.531-11.38-8.742-16.61-1.071-2.536-1.701-3.711-1.701-3.168 0 0.1066-0.3748 2.07-0.833 4.363-0.9841 4.928-1.856 11.39-2.279 16.88-0.1674 2.174-0.398 5.162-0.5122 6.636l-0.208 2.682-3.182-3.197c-4.588-4.611-7.655-8.872-11.06-15.38l-1.592-3.038-0.3425 1.858c-1.196 6.489-1.795 20.3-1.195 27.57 0.6722 8.161 2.993 17.45 5.712 22.88 0.2892 0.5761 0.5255 1.167 0.5255 1.314 0 1.145-14.22-5.839-21.87-16.2-0.4001-0.5415-0.4176-0.5288-0.426 0.3094-5e-3 0.4804 0.1233 2.894 0.2851 5.365 1.508 23.02 8.367 38.97 22.51 52.35l3.038 2.875-1.977-0.1881c-8.48-0.8067-15.39-4.764-15.39-4.261 2.2e-4 0.1668 0.3107 1.574 0.6896 3.126 2.22 9.098 6.113 17.26 11.6 24.3 2.069 2.657 6.856 7.308 9.815 9.533 6.3 4.741 15.93 9.643 23.22 11.81 1.398 0.4168 2.63 0.7688 2.739 0.783 0.1086 0.0149 0-0.4484-0.2424-1.027zm56.05-8.957c0.6868-0.4016 0.036 5.492 0.2756 5.492 2.928-2.201 5.783-4.498 8.657-6.771 0.6142 1.572 0.9806 3.219 1.338 4.862l5.342-5.292c2.124 1.766 3.289 4.572 5.362 6.339 0.0973 7e-3 0.4468-1.062 0.7765-2.376 1.394-5.557 0.2201-10.87-3.033-13.74-1.566-1.379-3.425-1.946-6.373-1.945-1.944 2.1e-4 -2.54 0.1243-4.066 0.8457-4.464 2.112-6.45 2.147-14.73 0.2545-4.515-1.032-5.664-1.193-8.471-1.193-2.88 6.3e-4 -3.55 0.1022-5.93 0.8871-3.403 1.124-6.368 2.863-8.931 5.238-1.857 1.72-4.891 5.653-4.589 5.952 0.2817 0.2815 2.945-0.3812 10.9-0.4078 0.1229 2.718-0.6225 5.484-0.411 8.189 0.3082-6.1e-4 9.329-3.702 13.2-5.986v6.568s10.48-6.8 10.69-6.921zm22.04-57.55c-1.945-3.86-5.159-6.969-9.417-9.115-3.897-1.962-6.421-2.13-8.084-0.5365-0.9056 0.8674-1.792 2.985-2.03 4.851l-0.1536 1.2h1.464c2.199 0 7.966 0.7683 10.35 1.379 2.144 0.5488 7.175 2.588 7.714 3.126 0.6532 0.6533 0.7253 0.2295 0.1538-0.9044z" fill="#b7bbbd"/>
	</g><text x="331.66318" y="208.99701" fill="#777" font-family="'Comic Sans MS'" font-size="15.93px" stroke-width="1.707" text-align="end" text-anchor="end" xml:space="preserve"><tspan x="331.66318" y="208.99701" font-family="'Comic Sans MS'" font-weight="bold" stroke-width="1.707">"Mock a ton"</tspan></text></svg>
